<svg xmlns="http://www.w3.org/2000/svg" viewBox="0 0 364.3 93.3" style="enable-background:new 0 0 364.3 93.3" xml:space="preserve"><path d="M55.6 29.8c-5.8-4.2-12.9-6.6-20.5-6.6C15.7 23.1 0 38.8 0 58.2c0 19.3 15.7 35.1 35.1 35.1 7.7 0 14.7-2.5 20.5-6.6v4.1h14.6V25.7H55.6v4.1zM35.1 78.7c-11.3 0-20.5-9.2-20.5-20.5s9.2-20.5 20.5-20.5 20.5 9.2 20.5 20.5-9.2 20.5-20.5 20.5zm217.4-55.6c-19.1 0-34 15.4-34 35.1 0 19.3 15.7 35.1 35.1 35.1 11.1 0 21.2-5 27.9-13.9l-13-7.1c-3.9 4.1-9.2 6.4-14.9 6.4-8.7 0-16.2-5.5-19.2-13.2h52.2v-7.3c-.1-19.7-15-35.1-34.1-35.1zm-18.3 27.8c2.7-7.9 9.7-13.2 18.3-13.2 8.6 0 15.6 5.3 18.3 13.2h-36.6zm-118-13.2c6.4 0 12.4 3 16.3 8.1l13.2-6.6c-6.5-10.1-17.5-16.1-29.5-16.1-19.3 0-35.1 15.7-35.1 35.1 0 19.3 15.7 35.1 35.1 35.1 12 0 23-6 29.5-16.1l-13.2-6.6c-3.9 5.1-9.9 8.1-16.3 8.1-11.3 0-20.5-9.2-20.5-20.5s9.2-20.5 20.5-20.5zm248.1 20.5c0-19.7-15-35.1-34-35.1-19.1 0-34 15.4-34 35.1 0 19.3 15.7 35.1 35.1 35.1 11.1 0 21.2-5 27.9-13.9l-13-7.1c-3.9 4.1-9.2 6.4-14.9 6.4-8.7 0-16.2-5.5-19.2-13.2h52.2v-7.3zm-52.4-7.3c2.7-7.9 9.7-13.2 18.3-13.2 8.6 0 15.6 5.3 18.3 13.2h-36.6zm-95.2-25.2h-19l-20.6 24.7h-7.5V0H155v90.7h14.6V66h7.5l20.6 24.7h19l-27.1-32.5 27.1-32.5z"/></svg>